<svg id="Layer_1" data-name="Layer 1" xmlns="http://www.w3.org/2000/svg" viewBox="0 0 212.34 28.81"><defs><style>.cls-1{fill:#fff;}</style></defs><title>grundfos-logo</title><polygon class="cls-1" points="82.33 14.15 82.33 22.7 74.13 14.15 68.05 14.15 68.05 28.31 72.01 28.31 72.01 19.89 80.24 28.31 86.31 28.31 86.31 14.15 82.33 14.15"/><path class="cls-1" d="M48.24,31.13h3.24c1.79,0,2.78.89,2.78,2.35,0,1.94-.91,2.6-3.59,2.62l4,6.37h6.57l-4.16-6c.64-.09,3.39-.47,3.39-4.14,0-4-4-4-6.56-4H42.31V42.47h5.93Z" transform="translate(-18.26 -14.16)"/><path class="cls-1" d="M76.1,28.31v7.94a4.09,4.09,0,0,1-.82,2.86,3,3,0,0,1-2.28.8,2.93,2.93,0,0,1-2.26-.8,4,4,0,0,1-.83-2.86V28.31h-6v8.31c0,2.24.46,3.18,1.42,4.14,1.5,1.49,4.34,2.12,7.68,2.12s6.22-.63,7.72-2.12c1-1,1.4-1.9,1.4-4.14V28.31Z" transform="translate(-18.26 -14.16)"/><path class="cls-1" d="M118.08,39.57H115V31.21h3.06c3.19,0,4.68,1.38,4.68,4.18s-1.62,4.18-4.68,4.18m.64-11.26h-9.66V42.47h9.66c7.07,0,10.35-1.52,10.35-7.12s-3.28-7-10.35-7" transform="translate(-18.26 -14.16)"/><path class="cls-1" d="M161,40c-3,0-4.57-1.6-4.57-4.64s1.49-4.63,4.57-4.63,4.58,1.56,4.58,4.63S164.24,40,161,40m0-12.12c-7.75,0-11.14,2.82-11.14,7.42,0,5.1,3.39,7.57,11.14,7.57s11.08-2.48,11.08-7.59c0-4.55-3.42-7.4-11.08-7.4" transform="translate(-18.26 -14.16)"/><polygon class="cls-1" points="120.5 17.19 128.71 17.19 130.58 14.15 114.41 14.15 114.41 28.31 120.5 28.31 120.5 23.71 127.2 23.71 129.12 20.66 120.5 20.66 120.5 17.19"/><path class="cls-1" d="M32.43,35.65v4s-1.72.19-2.55.19c-4.71,0-5.22-2.56-5.22-4.4,0-2.9,1.88-4.45,5.66-4.45a28.1,28.1,0,0,1,5.6.45l.72.14,1.89-3.08A66.57,66.57,0,0,0,29.44,28c-7.66,0-11.18,2.42-11.18,7.57s3.45,7.25,11.14,7.25a42.27,42.27,0,0,0,9-.83V35.65Z" transform="translate(-18.26 -14.16)"/><path class="cls-1" d="M186.64,33.66c-2.76-.44-4.53-.43-4.53-1.74s2.79-1.36,4.55-1.36a31.37,31.37,0,0,1,4.75.5l1.74-2.76a66.52,66.52,0,0,0-7.92-.48c-6.36,0-10.43,1.11-10.43,4.2,0,3.26,3.46,3.87,6.88,4.42,2.69.44,4.45.5,4.45,1.78,0,1.45-2.36,1.64-4.73,1.64a28.92,28.92,0,0,1-5.13-.62l-2,3.23A61.52,61.52,0,0,0,183,43c7.09,0,10.43-1.29,10.43-4.77,0-3.23-3.5-4-6.8-4.53" transform="translate(-18.26 -14.16)"/><path class="cls-1" d="M209.89,42.47h-7.6l10.6-10.61a13.56,13.56,0,0,1,2,1.75,14.73,14.73,0,0,1,1.81,2Z" transform="translate(-18.26 -14.16)"/><path class="cls-1" d="M206.39,34.23c-4-4.9-5.15-7-6.17-9.59-.65-1.62-1.46-4.8.21-6.46,1.47-1.48,4.37-1,7.3.34a42.21,42.21,0,0,1,10.86,7.65l12-12v7.58l-11,11s-1.19-1.24-1.8-1.85c-6.45-6.35-12.44-9.42-13.93-8-2,2,4.16,9.12,4.37,9.44Z" transform="translate(-18.26 -14.16)"/><path class="cls-1" d="M230.6,42.47h-4.28a20.29,20.29,0,0,0-2-3.77,22.29,22.29,0,0,0-2.83-3.64l2.88-2.88A44.54,44.54,0,0,1,227.91,37a26,26,0,0,1,2.69,5.44" transform="translate(-18.26 -14.16)"/></svg>